<svg width="169" height="39" viewBox="0 0 169 39" fill="none" xmlns="http://www.w3.org/2000/svg">
<path d="M38.5125 18.3712C38.3696 18.3119 38.2124 18.2965 38.0607 18.3269C37.9091 18.3574 37.7699 18.4323 37.661 18.5421L30.5411 25.662C30.4155 25.7862 30.316 25.9341 30.2482 26.0971C30.1804 26.2601 30.1457 26.435 30.1461 26.6115V29.1548C30.1458 29.4191 30.0406 29.6725 29.8537 29.8594C29.6668 30.0464 29.4134 30.1515 29.149 30.1519H22.0347C21.7784 30.1505 21.5326 30.0501 21.3485 29.8718L12.1685 21.175C11.9793 20.9971 11.8674 20.7522 11.8567 20.4927C11.8459 20.2333 11.9372 19.98 12.111 19.7871L27.2248 2.86255C27.4468 2.61594 27.5916 2.30967 27.6414 1.98162C27.6912 1.65356 27.6437 1.31811 27.5049 1.01675C27.3721 0.71345 27.1536 0.4556 26.8761 0.274948C26.5987 0.0942954 26.2744 -0.00127223 25.9434 1.27904e-05H18.8977C18.5897 9.91535e-05 18.2852 0.0651265 18.0041 0.190851C17.723 0.316575 17.4715 0.500169 17.2661 0.729652L0.560047 19.437C0.178686 19.8601 -0.0216963 20.4158 0.00186556 20.985C0.0254274 21.5541 0.271058 22.0914 0.686089 22.4816L17.4734 38.4006C17.8791 38.7863 18.4177 39.0009 18.9775 39H36.8053C37.3854 38.9996 37.9416 38.769 38.3517 38.3589C38.7619 37.9487 38.9925 37.3925 38.9928 36.8125V19.0939C38.9931 18.9391 38.9473 18.7877 38.8613 18.659C38.7752 18.5303 38.6528 18.4302 38.5097 18.3712" fill="#2A51A3"/>
<path d="M61.5768 21.287C61.426 21.1109 61.3412 20.8879 61.3368 20.6561C61.3325 20.4244 61.4089 20.1983 61.553 20.0168L65.1942 15.4471C65.5222 15.0324 65.6897 14.5134 65.6657 13.9852C65.6418 13.457 65.4281 12.9552 65.0639 12.5719L53.6796 0.668023C53.4741 0.456171 53.2281 0.287846 52.9563 0.173079C52.6844 0.0583115 52.3922 -0.000549366 52.0971 3.86388e-06H32.3506C31.7707 0.000745 31.2147 0.231453 30.8046 0.641531C30.3945 1.05161 30.1638 1.60758 30.1631 2.18752V20.3179C30.1628 20.4726 30.2085 20.6239 30.2944 20.7527C30.3802 20.8814 30.5024 20.9817 30.6453 21.041C30.7883 21.1002 30.9456 21.1157 31.0973 21.0855C31.2491 21.0552 31.3884 20.9806 31.4977 20.871L38.6737 13.6951C38.8897 13.4804 39.0116 13.1888 39.0126 12.8842V9.80322C39.0126 9.53876 39.1176 9.28514 39.3046 9.09814C39.4916 8.91114 39.7453 8.80609 40.0097 8.80609H48.883C49.1489 8.8063 49.4038 8.91209 49.5917 9.10019L54.2818 13.8365C54.4567 14.0122 54.5598 14.2469 54.5706 14.4946C54.5815 14.7422 54.4995 14.985 54.3406 15.1754L50.8773 19.3431C50.5462 19.74 50.3667 20.2414 50.3709 20.7582C50.375 21.275 50.5624 21.7735 50.8997 22.1651L53.576 25.2853C53.7445 25.48 53.8308 25.7325 53.8167 25.9896C53.8026 26.2467 53.6892 26.4883 53.5003 26.6633L43.466 36.0254C43.214 36.2606 43.0386 36.5663 42.9625 36.9025C42.8864 37.2388 42.9133 37.5902 43.0396 37.911C43.1658 38.2318 43.3857 38.5072 43.6705 38.7014C43.9554 38.8956 44.2921 38.9996 44.6368 39H52.2833C52.8391 38.9994 53.3737 38.7865 53.7776 38.4048L64.6844 28.1198C65.0943 27.7346 65.3397 27.206 65.3695 26.6443C65.3992 26.0825 65.211 25.531 64.844 25.1046L61.5768 21.287Z" fill="#00A0DF"/>
<path d="M93.9817 28.7335C88.87 28.7335 84.9754 24.8361 84.9754 19.6431C84.9754 14.4502 88.87 10.5528 93.9817 10.5528C97.1467 10.5528 99.8636 12.0541 101.488 14.4474L106.317 11.4477C103.719 7.5922 99.2138 5.1582 93.9817 5.1582C85.579 5.1582 79.2139 11.407 79.2139 19.6431C79.2139 27.8792 85.5818 34.1295 93.9817 34.1295C99.2138 34.1295 103.719 31.6955 106.317 27.84L101.488 24.8361C99.865 27.2294 97.1467 28.7335 93.9817 28.7335Z" fill="#2A51A3"/>
<path d="M118.448 12.4648C112.119 12.4648 107.331 17.1298 107.331 23.3002C107.331 29.4706 112.119 34.1341 118.448 34.1341C124.777 34.1341 129.566 29.465 129.566 23.3002C129.566 17.1354 124.781 12.4648 118.448 12.4648ZM118.448 29.0225C115.2 29.0225 112.766 26.5437 112.766 23.3002C112.766 20.0567 115.2 17.5779 118.448 17.5779C121.736 17.5779 124.127 20.0553 124.127 23.3002C124.127 26.5451 121.736 29.0183 118.448 29.0183V29.0225Z" fill="#2A51A3"/>
<path d="M143.038 12.625C140.604 12.625 138.576 13.7188 137.075 15.6262V12.9485H131.801V33.6431H137.075V23.8231C137.075 20.2953 139.267 18.0602 143.038 18.0602H143.932V12.625H143.038Z" fill="#2A51A3"/>
<path d="M158.214 12.4648C155.457 12.4648 153.143 13.5628 151.478 15.4268V12.948H146.208V38.9965H151.484V31.168C153.149 33.032 155.462 34.1299 158.22 34.1299C163.983 34.1299 168.283 29.4608 168.283 23.296C168.283 17.1312 163.977 12.4648 158.214 12.4648ZM157.161 29.0225C153.912 29.0225 151.478 26.5437 151.478 23.3002C151.478 20.0567 153.912 17.5779 157.161 17.5779C160.445 17.5779 162.84 20.0553 162.84 23.3002C162.84 26.5451 160.445 29.0183 157.161 29.0183V29.0225Z" fill="#2A51A3"/>
</svg>
