<svg width="32" height="32" viewBox="0 0 32 32" fill="none" xmlns="http://www.w3.org/2000/svg">
<g clip-path="url(#clip0_26_74)">
<path d="M32.0404 6.67997C30.8579 7.20497 29.5904 7.55747 28.2579 7.71747C29.6179 6.90247 30.6629 5.61247 31.1529 4.07747C29.8829 4.82997 28.4704 5.37747 26.9729 5.67247C25.7729 4.39247 24.0629 3.59497 22.1704 3.59497C18.5354 3.59497 15.5879 6.53997 15.5879 10.175C15.5879 10.69 15.6479 11.1925 15.7604 11.675C10.2904 11.4 5.44289 8.77997 2.19539 4.79747C1.62789 5.77247 1.30539 6.90247 1.30539 8.10747C1.30539 10.39 2.46539 12.405 4.23289 13.5875C3.15289 13.5525 2.13789 13.255 1.25039 12.7625C1.25039 12.79 1.25039 12.8175 1.25039 12.845C1.25039 16.035 3.52039 18.6925 6.52789 19.3C5.97789 19.45 5.39539 19.53 4.79539 19.53C4.37039 19.53 3.95789 19.49 3.55539 19.41C4.39539 22.0225 6.82539 23.93 9.70289 23.9825C7.45289 25.7475 4.61539 26.7975 1.53039 26.7975C0.997891 26.7975 0.475391 26.7675 -0.0371094 26.705C2.87289 28.575 6.33289 29.6625 10.0504 29.6625C22.1554 29.6625 28.7754 19.635 28.7754 10.94C28.7754 10.655 28.7679 10.3675 28.7579 10.0875C30.0429 9.15997 31.1579 7.99997 32.0404 6.67997Z" fill="black"/>
</g>
<defs>
<clipPath id="clip0_26_74">
<rect width="32" height="32" fill="white"/>
</clipPath>
</defs>
</svg>
