<svg id="visual" viewBox="0 0 900 600" width="900" height="600" xmlns="http://www.w3.org/2000/svg" xmlns:xlink="http://www.w3.org/1999/xlink" version="1.1"><path d="M0 134L8.3 136.7C16.7 139.3 33.3 144.7 50 140.8C66.7 137 83.3 124 100 122.8C116.7 121.7 133.3 132.3 150 131.3C166.7 130.3 183.3 117.7 200 118.5C216.7 119.3 233.3 133.7 250 133.5C266.7 133.3 283.3 118.7 300 117.3C316.7 116 333.3 128 350 133.5C366.7 139 383.3 138 400 132.7C416.7 127.3 433.3 117.7 450 112.3C466.7 107 483.3 106 500 108.5C516.7 111 533.3 117 550 124.5C566.7 132 583.3 141 600 145.8C616.7 150.7 633.3 151.3 650 149.2C666.7 147 683.3 142 700 141C716.7 140 733.3 143 750 138.2C766.7 133.3 783.3 120.7 800 117C816.7 113.3 833.3 118.7 850 116C866.7 113.3 883.3 102.7 891.7 97.3L900 92L900 0L891.7 0C883.3 0 866.7 0 850 0C833.3 0 816.7 0 800 0C783.3 0 766.7 0 750 0C733.3 0 716.7 0 700 0C683.3 0 666.7 0 650 0C633.3 0 616.7 0 600 0C583.3 0 566.7 0 550 0C533.3 0 516.7 0 500 0C483.3 0 466.7 0 450 0C433.3 0 416.7 0 400 0C383.3 0 366.7 0 350 0C333.3 0 316.7 0 300 0C283.3 0 266.7 0 250 0C233.3 0 216.7 0 200 0C183.3 0 166.7 0 150 0C133.3 0 116.7 0 100 0C83.3 0 66.7 0 50 0C33.3 0 16.7 0 8.3 0L0 0Z" fill="#22CBB7" stroke-linecap="round" stroke-linejoin="miter"></path></svg>