<svg width="32" height="32" viewBox="0 0 32 32" fill="none" xmlns="http://www.w3.org/2000/svg">
<path d="M16.0002 3.20001C8.9314 3.20001 3.2002 8.93121 3.2002 16C3.2002 18.4013 3.87469 20.6401 5.0252 22.5604L3.31478 28.8L9.6877 27.1271C11.5515 28.1867 13.7031 28.8 16.0002 28.8C23.069 28.8 28.8002 23.0688 28.8002 16C28.8002 8.93121 23.069 3.20001 16.0002 3.20001ZM11.6189 10.0292C11.8269 10.0292 12.0407 10.0279 12.2252 10.0375C12.4535 10.0428 12.7019 10.0596 12.9398 10.5854C13.2224 11.2105 13.8379 12.7786 13.9169 12.9375C13.9958 13.0964 14.0517 13.2837 13.9419 13.4917C13.8373 13.705 13.783 13.8341 13.6294 14.0229C13.4704 14.2064 13.2963 14.4343 13.1523 14.5729C12.9933 14.7319 12.8292 14.9061 13.0127 15.2229C13.1962 15.5397 13.8333 16.5783 14.7752 17.4167C15.9859 18.4983 17.0073 18.8307 17.3252 18.9896C17.6431 19.1485 17.8271 19.1238 18.0106 18.9104C18.1994 18.7024 18.8035 17.9887 19.0169 17.6708C19.2249 17.353 19.4372 17.408 19.7252 17.5125C20.0175 17.617 21.5761 18.3848 21.8939 18.5438C22.2118 18.7027 22.4202 18.7814 22.5002 18.9104C22.5823 19.0438 22.5824 19.6785 22.3189 20.4188C22.0555 21.158 20.7617 21.8728 20.1814 21.9229C19.5958 21.9773 19.0493 22.1861 16.3752 21.1333C13.1496 19.8629 11.1154 16.5592 10.9564 16.3458C10.7975 16.1378 9.66478 14.6282 9.66478 13.0708C9.66478 11.5082 10.4841 10.7429 10.771 10.425C11.0633 10.1071 11.4056 10.0292 11.6189 10.0292Z" fill="black"/>
</svg>
